<svg width="277" height="277" viewBox="0 0 277 277" fill="none" xmlns="http://www.w3.org/2000/svg">
<path d="M207.011 207.011C193.363 220.658 175.975 229.953 157.045 233.718C138.115 237.483 118.494 235.551 100.663 228.165C82.8312 220.779 67.5904 208.271 56.8675 192.223C46.1446 176.175 40.4213 157.308 40.4213 138.007C40.4213 118.707 46.1446 99.8393 56.8675 83.7914C67.5904 67.7435 82.8312 55.2357 100.663 47.8496C118.494 40.4636 138.115 38.5311 157.045 42.2964C175.975 46.0618 193.363 55.356 207.011 69.0036L194.936 81.0784C183.676 69.819 169.331 62.1512 153.714 59.0448C138.096 55.9383 121.909 57.5326 107.198 63.6262C92.4864 69.7198 79.9125 80.0389 71.066 93.2786C62.2196 106.518 57.4978 122.084 57.4978 138.007C57.4978 153.93 62.2196 169.496 71.066 182.736C79.9125 195.975 92.4864 206.295 107.198 212.388C121.909 218.482 138.096 220.076 153.714 216.97C169.331 213.863 183.676 206.195 194.936 194.936L207.011 207.011Z" fill="#C41212"/>
</svg>
