<svg width="341" height="329" viewBox="0 0 341 329" fill="none" xmlns="http://www.w3.org/2000/svg">
<g clip-path="url(#clip0)">
<path d="M268.5 261.5C249.216 280.784 224.647 293.916 197.9 299.236C171.153 304.557 143.429 301.826 118.233 291.39C93.038 280.954 71.5032 263.28 56.3521 240.605C41.201 217.93 33.1142 191.271 33.1142 164C33.1142 136.729 41.201 110.07 56.3521 87.3947C71.5032 64.7195 93.0381 47.0464 118.233 36.6101C143.429 26.1739 171.153 23.4433 197.9 28.7636C224.647 34.084 249.216 47.2163 268.5 66.5L255.944 79.0563C239.143 62.2561 217.739 50.8149 194.436 46.1798C171.133 41.5446 146.979 43.9235 125.029 53.0158C103.078 62.108 84.3167 77.5052 71.1168 97.2602C57.9169 117.015 50.8715 140.241 50.8715 164C50.8715 187.759 57.9169 210.985 71.1168 230.74C84.3167 250.495 103.078 265.892 125.029 274.984C146.979 284.077 171.133 286.455 194.436 281.82C217.739 277.185 239.143 265.744 255.944 248.944L268.5 261.5Z" fill="#0D4088"/>
<path d="M243.426 236.426C229.17 250.682 211.007 260.391 191.233 264.324C171.459 268.257 150.963 266.239 132.336 258.523C113.71 250.808 97.7891 237.742 86.5881 220.979C75.3871 204.215 69.4086 184.507 69.4086 164.346C69.4086 144.184 75.3871 124.476 86.5881 107.713C97.7891 90.949 113.71 77.8835 132.336 70.1681C150.963 62.4527 171.459 60.434 191.233 64.3673C211.007 68.3006 229.17 78.0091 243.426 92.2653L230.813 104.879C219.051 93.1171 204.066 85.1074 187.753 81.8624C171.439 78.6174 154.529 80.2829 139.162 86.6482C123.795 93.0134 110.661 103.793 101.42 117.623C92.1788 131.453 87.2465 147.712 87.2465 164.346C87.2465 180.979 92.1788 197.239 101.42 211.069C110.661 224.899 123.795 235.678 139.162 242.043C154.529 248.409 171.439 250.074 187.753 246.829C204.066 243.584 219.051 235.574 230.813 223.813L243.426 236.426Z" fill="#C41212"/>
<ellipse cx="172" cy="165" rx="27.5" ry="28" fill="#318E13"/>
</g>
<defs>
<clipPath id="clip0">
<rect width="341" height="329" fill="white"/>
</clipPath>
</defs>
</svg>
