<svg width="374" height="329" viewBox="0 0 374 329" fill="none" xmlns="http://www.w3.org/2000/svg">
<path d="M280.014 257.014C261.554 275.475 238.034 288.047 212.428 293.14C186.823 298.233 160.282 295.619 136.162 285.628C112.042 275.638 91.4265 258.719 76.9222 237.011C62.4178 215.304 54.6762 189.783 54.6762 163.676C54.6762 137.569 62.4178 112.048 76.9222 90.3409C91.4265 68.6336 112.042 51.7149 136.162 41.7241C160.282 31.7333 186.823 29.1193 212.428 34.2125C238.034 39.3058 261.554 51.8776 280.014 70.3381L267.994 82.3584C251.911 66.2753 231.42 55.3226 209.112 50.8852C186.804 46.4479 163.681 48.7253 142.667 57.4294C121.654 66.1336 103.693 80.8735 91.0566 99.7852C78.4202 118.697 71.6755 140.931 71.6755 163.676C71.6755 186.421 78.4202 208.655 91.0566 227.567C103.693 246.479 121.654 261.219 142.667 269.923C163.681 278.627 186.804 280.904 209.112 276.467C231.42 272.03 251.911 261.077 267.994 244.994L280.014 257.014Z" fill="#0D4088"/>
</svg>
